PathFileType	4	(X/Y/Z)	24_2_120_p1_0-295_filt_butterworth.trc
DataRate	CameraRate	NumFrames	NumMarkers	Units	OrigDataRate	OrigDataStartFrame	OrigNumFrames
53.0	53.0	5	27	m	53.0	36	295
Frame#	Time	RHip			RKnee			RAnkle			RBigToe			RSmallToe			RHeel			LHip			LKnee			LAnkle			LBigToe			LSmallToe			LHeel			Neck			Head			Nose			RShoulder			RElbow			RWrist			RThumb			RIndex			RPinky			LShoulder			LElbow			LWrist			LThumb			LIndex			LPinky			
		X1	Y1	Z1	X2	Y2	Z2	X3	Y3	Z3	X4	Y4	Z4	X5	Y5	Z5	X6	Y6	Z6	X7	Y7	Z7	X8	Y8	Z8	X9	Y9	Z9	X10	Y10	Z10	X11	Y11	Z11	X12	Y12	Z12	X13	Y13	Z13	X14	Y14	Z14	X15	Y15	Z15	X16	Y16	Z16	X17	Y17	Z17	X18	Y18	Z18	X19	Y19	Z19	X20	Y20	Z20	X21	Y21	Z21	X22	Y22	Z22	X23	Y23	Z23	X24	Y24	Z24	X25	Y25	Z25	X26	Y26	Z26	X27	Y27	Z27	
36	0.6792452830188679	0.41636007891006366	0.5980875967155551	0.8356871790862359	0.410442544240197	0.6594313444951391	1.2743954754763447	0.38017454704485537	0.7873269355034431	1.7187158280348953	0.39994805109114107	0.5453733641287677	1.7198700419169382	0.4510694059127818	0.5667156086801028	1.707950438876738	0.3636530509700282	0.8202865977641793	1.7700607684495795	0.2001802378560549	0.580487448705552	0.8388331553762534	0.20005197791633803	0.6243234778546476	1.272954917778248	0.20487220517644988	0.6810410677303878	1.694066923296987	0.24886157322580996	0.4969879786447201	1.706158684922778	0.18406181651883538	0.5506637296437711	1.7192222985134502	0.20433089428862888	0.7685008908489714	1.7529953162586855	0.30388023041449425	0.4937423107870848	0.24040981521239277	0.30118339448940473	0.4481308995481922	0.015948422886043125	0.30197425594063093	0.3596947292267841	0.13814682853128046	0.4670715977505093	0.5097010804279769	0.34386348703727126	0.5160527411424775	0.5646694042302393	0.6192598188419162	0.42113670514299145	0.42947467589127575	0.8064455091140318	0.29139467822846205	0.43169275964198983	0.8575413380786523	0.2865550201074254	0.4559352457338946	0.8847382149278983	0.3010533311114358	0.49938438244199607	0.9087130695902776	0.14231461853175495	0.5569364959701286	0.3541821953493902	0.10506027979765195	0.5328479588936988	0.6050887278712141	0.23410940782181933	0.45302584036003235	0.7889134877406705	0.3032151840945293	0.427905945010243	0.8328883279330542	0.31390150361581604	0.41263520331265907	0.8629775764642535	0.29439168489261314	0.45902433841783197	0.8854119739038946
37	0.6981132075471698	0.4154777698580827	0.5977820579722862	0.8362219995614608	0.41080778617622327	0.6596403283615191	1.2745730469604668	0.37955998407082775	0.7831736294455237	1.7169851963698024	0.40009714214829295	0.5455316187260318	1.7208799576897689	0.4498568252714027	0.5661661035580394	1.707809224314202	0.3637173954921267	0.8203629869521888	1.7700240324508725	0.2000069556327567	0.5806001886213554	0.8400008191769579	0.19992684319473977	0.6252069902516395	1.2757184035703801	0.2048624550746792	0.6809772143546068	1.6940473901749806	0.24757531086063717	0.49595821593596756	1.705780314114881	0.18398934588422897	0.5505960806809492	1.7191035119819114	0.2057176985092599	0.7701891502493327	1.753271249078237	0.30387439674394495	0.49374961498917735	0.24044723862215642	0.30116189185337044	0.44815761032384127	0.015955740693397422	0.30198003448484234	0.3596825047730034	0.13816308841744185	0.467066459233249	0.5097119808225022	0.34408972895099565	0.5160579774778459	0.564639190058833	0.6192998252421208	0.42559982458524315	0.4301787053736422	0.8060995576178078	0.29094884270096477	0.4347279148302046	0.8594651299637476	0.28620194482039585	0.4569696933132956	0.8862791997729125	0.3010869057488375	0.4975452994785482	0.9118923931382498	0.14230536868901197	0.5569174222275073	0.35417655195179576	0.10505937866838083	0.5328589060789196	0.6050666339163363	0.2358576714520152	0.44457793302762216	0.7892463596665706	0.30636695180666684	0.4221608745165153	0.8329915983942362	0.3184561379391421	0.40586080632125227	0.862553872376681	0.29600273698888235	0.45424839964868857	0.8873311894788447
38	0.7169811320754716	0.4139560878665074	0.5971604612345607	0.8340867211350982	0.41115103604611625	0.6593090716274268	1.2746282702309721	0.3786968358450866	0.7773974184856023	1.714570322609442	0.4003714339572921	0.5457399781462823	1.7226668479338914	0.4482278786880665	0.5654716335972224	1.7077794176292407	0.363736187526333	0.820254028768738	1.7701933608378402	0.19930993218091356	0.5794000005445825	0.8395394138527931	0.19999999274295546	0.6252409860941642	1.2770138446480228	0.204857821789913	0.6809591667107974	1.6940614512939	0.2472871023438485	0.49554181053589874	1.7056488944392436	0.18398640878819622	0.5505389260136091	1.719099844779298	0.20614506199069246	0.7712165771195497	1.7532588957256359	0.30388090438670423	0.4937564369427851	0.24047743613982517	0.301193962357706	0.44817999529234076	0.015961590432560627	0.30200077466843284	0.3596518493619504	0.13819106676996246	0.46702834136179056	0.5098360989050729	0.3449893049359285	0.5160706763690166	0.5646406771371817	0.6193361724400779	0.4304754030554088	0.43096534768558414	0.8056445962364089	0.2925114411660198	0.4343486238897492	0.8612071593911697	0.28639944159052527	0.4577261905761576	0.8877615769276167	0.3023315711850415	0.499518779558931	0.9173469406209798	0.14228950931486078	0.5569446067118735	0.35418308177470664	0.10505652664159065	0.5329626212644979	0.605070452413338	0.236897016040136	0.4359077779548606	0.7906932886997827	0.3106510715537954	0.4155645385456831	0.8330957593764278	0.32349403315793906	0.3984211936477816	0.862574646082324	0.29881502970679624	0.4442350947186856	0.8895589228860252
39	0.7358490566037735	0.4128462882407307	0.5966308298866746	0.8309060505751578	0.41146721964430244	0.6587076815361683	1.2746163066226166	0.3780751668494077	0.7732616159115071	1.7128263626105251	0.4005186053516959	0.5458181847147545	1.7235732189100763	0.44709116829479356	0.564997996001192	1.707797126253116	0.3636650614764414	0.8202119649608973	1.7700112384922038	0.1983522670686669	0.5761424746535897	0.8379353714105663	0.2003247393259482	0.6246878221042009	1.278127371918614	0.20489223631680867	0.6809993808947308	1.6941106169872113	0.24742876048767576	0.49543482212254797	1.705631382170341	0.18401994329543528	0.5504766248535495	1.719129994493137	0.20577430215899165	0.7714370354399201	1.753888595410131	0.303898196653459	0.49374779092321697	0.2404918027917323	0.3012589332285081	0.4481899421850498	0.015964784055977045	0.3020332607726258	0.35961686906339085	0.13821616902002307	0.46697107498065027	0.5100166641083533	0.34628624528562707	0.5160763629735041	0.5646564714337984	0.6193509306297371	0.43499012674590765	0.4302679524199735	0.8054757522906578	0.2979212629348078	0.42526798032898944	0.8602712009845007	0.28834155121460026	0.455103784834127	0.8892190039577612	0.30380798651632024	0.5022772637613266	0.9230411263342297	0.142278580010809	0.5569650189699704	0.3541977285691726	0.10503804323915461	0.5330975138679084	0.6050592420167247	0.23647868379455306	0.4310892629315741	0.7937048677505992	0.31390147945467967	0.4105569797751956	0.8328832330658485	0.32586911461452484	0.3922144104042643	0.8638250189902211	0.3012857368712016	0.4331463787299884	0.8923075681007736
40	0.7547169811320755	0.4128502111971827	0.5967613491354697	0.8286095535534923	0.4118737101777622	0.6581168397476816	1.274676398179501	0.3778876385858699	0.7720541706495456	1.7122865810852699	0.40045930626450954	0.545991322775867	1.7230924964442031	0.4467795803762903	0.5648664751414076	1.7078042275237244	0.3634747030470376	0.8205549704108998	1.768951792472348	0.19784354122788378	0.5719655952828013	0.8362931654409947	0.20081980756770249	0.6241284578536209	1.279330124612194	0.2050016713636002	0.6811133645982792	1.6941846394178732	0.24754849505248055	0.49540590252817107	1.7056121984196007	0.18406045924428024	0.5503832926772597	1.7190672881407587	0.20521391588179733	0.7706594765420566	1.7558595837444795	0.30391398370540645	0.4937208052756074	0.2404943353847622	0.30133141329543256	0.44814051644381425	0.01595673969066414	0.30206436387644364	0.3595775154547751	0.13822762947328737	0.46696999353189783	0.5100326849038084	0.3472723495926675	0.5160368824534005	0.5647086912678608	0.6193497051379434	0.4395111472172599	0.4271749224641881	0.8063748823975063	0.30660718062248005	0.40794514073069316	0.8565019094625507	0.29332291685864265	0.44531983941307757	0.8917451494400418	0.3057130450498938	0.49978739062250704	0.9273379711063202	0.14228458758169615	0.5569160254920129	0.35420764065979193	0.10496380888392406	0.5331349243916783	0.6050341634580587	0.23434119812961074	0.4302877022821852	0.7978790399831682	0.315919024608032	0.40592410741321605	0.8325019733885058	0.32582662511437327	0.38759816775590133	0.8656352609075608	0.30102521553934847	0.4287587331407305	0.8976492000664805
